<?xml version="1.0" encoding="utf-8"?>
<!-- Generator: Adobe Illustrator 22.0.0, SVG Export Plug-In . SVG Version: 6.00 Build 0)  -->
<svg version="1.1" xmlns="http://www.w3.org/2000/svg" xmlns:xlink="http://www.w3.org/1999/xlink" x="0px" y="0px"
	 viewBox="0 0 575.8 293" style="enable-background:new 0 0 575.8 293;" xml:space="preserve">
<style type="text/css">
	.st0{fill:#FFFFFF;}
	.st1{display:none;}
	.st2{display:inline;}
	.st3{fill:#EE4799;}
</style>
<g id="Logo_-_black">
	<path class="st0" d="M105.1,137.6c-8.8,0-18.3-6.2-18.3-23.5s9.4-23.5,18.3-23.5c8.8,0,18.3,6.2,18.3,23.5S114,137.6,105.1,137.6z
		 M105.1,98c-5.7,0-8.8,5.8-8.8,16.2s3.1,16.2,8.8,16.2c5.7,0,8.8-5.8,8.8-16.2S110.8,98,105.1,98z"/>
	<path class="st0" d="M140.7,137h-9.2V91.3h13.3c9.2,0,14.5,5.1,14.5,14.1c0,9-5.3,14.1-14.5,14.1h-4.1V137z M140.7,112.3h2.6
		c4.7,0,6.9-2.1,6.9-6.9c0-4.7-2.1-6.8-6.9-6.8h-2.6V112.3z"/>
	<path class="st0" d="M192.7,137h-25.1V91.3h24.5v7.5h-15.3v10.9h14.5v7.5h-14.5v12.2h15.9V137z"/>
	<path class="st0" d="M235.7,137h-10.6L211,103.8V137h-8.4V91.3h10.6l14.1,33.4V91.3h8.4V137z"/>
	<path class="st0" d="M274.6,137.6c-4.6,0-8.2-0.7-10.4-2.1l-0.3-0.2l0.5-8.4l0.7,0.5c1,0.6,4.5,2.7,9.2,2.7c3,0,6.3-1.6,6.3-6
		c0-2.8-1.5-4.1-5.6-6.3l-4.2-2.3c-5.1-2.8-7.6-6.8-7.6-12.1c0-6.3,4.5-12.7,14.6-12.7c4.3,0,7.5,1,9,1.5l0.8,0.3l-0.4,7.9l-1.1-0.4
		c-1.9-0.8-4.3-1.7-7.7-1.7c-3.6,0-5.7,1.8-5.7,4.7c0,3.1,2.1,4.2,4.5,5.6l4.8,2.7c5.2,2.9,8,5.8,8,12.5
		C290.1,132.3,284.2,137.6,274.6,137.6z"/>
	<path class="st0" d="M313.8,137.6c-8.8,0-18.3-6.2-18.3-23.5s9.4-23.5,18.3-23.5c8.8,0,18.3,6.2,18.3,23.5S322.7,137.6,313.8,137.6
		z M313.8,98c-5.7,0-8.8,5.8-8.8,16.2s3.1,16.2,8.8,16.2c5.7,0,8.8-5.8,8.8-16.2S319.5,98,313.8,98z"/>
	<path class="st0" d="M358.6,137.6c-13,0-21-9-21-23.5c0-14.3,8.2-23.5,20.8-23.5c4.5,0,8.3,1.2,10.1,1.9l0.3,0.1l-0.5,8.5l-1.2-0.6
		c-1.6-0.8-4.1-2.1-7.7-2.1c-3.6,0-12.1,1.5-12.1,15.7c0,14.2,8.5,15.7,12.1,15.7c3.4,0,6.1-0.7,8.2-2.2l0.7-0.5l0.5,8.7l-0.3,0.2
		C366.7,137,362.6,137.6,358.6,137.6z"/>
	<path class="st0" d="M386.5,137h-9.2V91.3h9.2V137z"/>
	<path class="st0" d="M420.5,137h-25.1V91.3h24.5v7.5h-15.3v10.9H419v7.5h-14.5v12.2h15.9V137z"/>
	<path class="st0" d="M442.8,137h-9.2V98.9h-10v-7.5h29.1v7.5h-9.9V137z"/>
	<path class="st0" d="M476.9,137h-9.2v-18.3l-13.5-27.4h9.9l8.4,17.2l7.9-17.2h10l-13.5,27.6V137z"/>
	<path class="st0" d="M91.3,157h20v4.9H97v14.2h13.6v4.9H97v20.7h-5.6V157z"/>
	<path class="st0" d="M137,156.6c9.9,0,16.3,8.5,16.3,22.3c0,15.4-6.2,23.2-16.8,23.2c-9.9,0-16.3-8.5-16.3-22.3
		C120.2,164.4,126.4,156.6,137,156.6z M136.5,197.5c5.9,0,10.9-4.9,10.9-18.6c0-9-2.8-17.7-10.4-17.7c-5.9,0-10.9,4.9-10.9,18.6
		C126.1,188.8,128.9,197.5,136.5,197.5z"/>
	<path class="st0" d="M192.3,185.3c0,4.4-0.3,6.8-1.8,10c-1.9,3.7-5.8,6.9-12.2,6.9s-10.4-3.2-12.2-6.9c-1.5-3.1-1.8-5.6-1.8-10V157
		h5.6v29.1c0,7,3.1,11.5,8.4,11.5c5.3,0,8.4-4.5,8.4-11.5V157h5.6V185.3z"/>
	<path class="st0" d="M206.4,157h7l16.8,36.9h0.1V157h5.4v44.7h-7l-16.8-36.6h-0.1v36.6h-5.4V157z"/>
	<path class="st0" d="M249.9,157h9.7c6,0,9.3,1.4,11.9,3.2c4,2.8,8.3,8.4,8.3,18.4c0,12.9-6.1,23-22.9,23h-7V157z M255.5,196.8h3.4
		c9.9,0,15-6.7,15-18.2c0-9.3-4-16.8-15-16.8h-3.4V196.8z"/>
	<path class="st0" d="M306.7,157l14.6,44.7h-5.9l-3.6-11.6h-17l-3.6,11.6h-5.6l15-44.7H306.7z M310.3,185.2l-6.8-22.3h-0.1l-7,22.3
		H310.3z"/>
	<path class="st0" d="M334.6,161.9h-10.2V157h26.1v4.9h-10.2v39.8h-5.6V161.9z"/>
	<path class="st0" d="M361,157h5.6v44.7H361V157z"/>
	<path class="st0" d="M395.3,156.6c9.9,0,16.3,8.5,16.3,22.3c0,15.4-6.2,23.2-16.8,23.2c-9.9,0-16.3-8.5-16.3-22.3
		C378.5,164.4,384.7,156.6,395.3,156.6z M394.8,197.5c5.9,0,10.9-4.9,10.9-18.6c0-9-2.8-17.7-10.4-17.7c-5.9,0-10.9,4.9-10.9,18.6
		C384.4,188.8,387.2,197.5,394.8,197.5z"/>
	<path class="st0" d="M422.6,157h7l16.8,36.9h0.1V157h5.4v44.7h-7l-16.8-36.6h-0.1v36.6h-5.4V157z"/>
	<path class="st0" d="M484.5,163.5c-2.1-1.3-4.9-2-7.6-2c-4.2,0-7,2.9-7,6.7c0,2.9,1.2,4.7,7.6,8.4c6.9,4,9.2,7.9,9.2,13
		c0,7.1-4.4,12.7-13,12.7c-3.6,0-7-0.8-9.3-1.9v-5.8c2.6,1.5,5.9,2.9,8.5,2.9c5.1,0,7.9-3.4,7.9-7c0-3.5-0.9-5.4-6.9-9.1
		c-8.1-4.9-9.9-7.6-9.9-13.4c0-7.4,5.6-11.2,12.4-11.2c2.9,0,6.1,0.6,8.1,1.5V163.5z"/>
</g>
<g id="Area_of_Isolation" class="st1">
	<g class="st2">
		<rect x="45.7" y="45.7" class="st3" width="45.7" height="45.7"/>
		<rect class="st3" width="45.7" height="45.7"/>
	</g>
	<g class="st2">
		<rect x="530.1" y="247.4" class="st3" width="45.7" height="45.7"/>
		<rect x="484.5" y="201.7" class="st3" width="45.7" height="45.7"/>
	</g>
	<g class="st2">
		
			<rect x="484.5" y="45.7" transform="matrix(-1.836970e-16 1 -1 -1.836970e-16 575.7969 -438.79)" class="st3" width="45.7" height="45.7"/>
		
			<rect x="530.1" transform="matrix(-1.836970e-16 1 -1 -1.836970e-16 575.7969 -530.1279)" class="st3" width="45.7" height="45.7"/>
	</g>
	<g class="st2">
		<rect y="247.4" transform="matrix(-1.836970e-16 1 -1 -1.836970e-16 293.0439 247.375)" class="st3" width="45.7" height="45.7"/>
		
			<rect x="45.7" y="201.7" transform="matrix(-1.836970e-16 1 -1 -1.836970e-16 293.0439 156.0371)" class="st3" width="45.7" height="45.7"/>
	</g>
</g>
</svg>
