<?xml version="1.0" encoding="utf-8"?>
<!-- Generator: Adobe Illustrator 22.0.0, SVG Export Plug-In . SVG Version: 6.00 Build 0)  -->
<svg version="1.1" id="Layer_1" xmlns="http://www.w3.org/2000/svg" xmlns:xlink="http://www.w3.org/1999/xlink" x="0px" y="0px"
	 viewBox="0 0 377.9 504.6" style="enable-background:new 0 0 377.9 504.6;" xml:space="preserve">
<style type="text/css">
	.st0{fill:#6F5873;}
	.st1{fill:#FFFFFF;}
	.st2{fill:#E99085;}
</style>
<g>
	<rect class="st0" width="377.9" height="373.6"/>
	<path class="st1" d="M288.6,177.7c5.6-4.5,9.2-11.4,9.2-19.1v-3.9c0-13.5-11-24.5-24.5-24.5h-3.9c5.3-4.5,8.6-11.2,8.6-18.6v-3.9
		c0-13.5-11-24.5-24.5-24.5h-2.2c2.8-4,4.4-8.8,4.4-14v-3.9c0-13.5-11-24.5-24.5-24.5h-84.2c-13.5,0-24.5,11-24.5,24.5V69
		c0,5.2,1.6,10,4.4,14h-2.2c-13.5,0-24.5,11-24.5,24.5v3.9c0,7.4,3.4,14.1,8.6,18.6h-3.9c-13.5,0-24.5,11-24.5,24.5v3.9
		c0,7.7,3.6,14.6,9.2,19.1c-11.9,1.7-21.1,12-21.1,24.3v3.9c0,13.5,11,24.5,24.5,24.5h192.4c13.5,0,24.5-11,24.5-24.5v-3.9
		C309.7,189.6,300.5,179.4,288.6,177.7z"/>
	<circle class="st2" cx="188.9" cy="33.5" r="19"/>
	<path class="st2" d="M74.9,218.2c-1,1.3-1.4,3-1.1,4.6L101.2,349c0.5,2.5,2.8,4.3,5.4,4.3h164.7c2.6,0,4.8-1.8,5.4-4.3l27.4-126.2
		c0.4-1.6,0-3.3-1.1-4.6c-0.7-0.9-1.8-1.6-2.9-1.8l-111.9,29.3L77.8,216.3C76.6,216.6,75.6,217.3,74.9,218.2z"/>
	<path class="st0" d="M310.3,147.6h-62.7c-21.7,0-42.2,7.6-58.6,21.5c-16.3-13.9-36.9-21.5-58.6-21.5H67.6c-4.2,0-7.6,3.4-7.6,7.6
		v18.3c0,52.1,42.4,94.4,94.4,94.4c8.6,0,16.6-3.3,22.7-9.4l5-5c1.8-1.8,4.2-2.8,6.7-2.8c2.5,0,4.9,1,6.7,2.8l5,5
		c6.1,6.1,14.1,9.4,22.7,9.4c52.1,0,94.4-42.4,94.4-94.4v-18.3C317.8,150.9,314.4,147.6,310.3,147.6z M164.7,227.4h-16.2
		c-22,0-39.9-17.9-39.9-39.9c0-4.2,3.4-7.6,7.6-7.6h16.2c22,0,39.9,17.9,39.9,39.9C172.2,224,168.8,227.4,164.7,227.4z M229.4,227.4
		h-16.2c-4.2,0-7.6-3.4-7.6-7.6c0-22,17.9-39.9,39.9-39.9h16.2c4.2,0,7.6,3.4,7.6,7.6C269.3,209.5,251.4,227.4,229.4,227.4z"/>
	<g>
		<path class="st0" d="M18.5,439.8h23.7v16.7H18.5v48.2H0.2V387.9h48.5v16.7H18.5V439.8z"/>
		<path class="st0" d="M114.8,504.6H96.3l-3.2-21.2H70.6l-3.2,21.2H50.6l18.7-116.7h26.8L114.8,504.6z M72.9,467.6h17.7l-8.8-59
			L72.9,467.6z"/>
		<path class="st0" d="M147.3,458.1l-5.7,10.7v35.9h-18.3V387.9h18.3v50.9l24-50.9H184l-25.5,52l25.5,64.7h-18.8L147.3,458.1z"/>
		<path class="st0" d="M210.7,437.1h25.2v16.7h-25.2V488h31.7v16.7h-50V387.9h50v16.7h-31.7V437.1z"/>
		<path class="st0" d="M292.2,504.6c-1-3-1.7-4.8-1.7-14.3V472c0-10.8-3.7-14.8-12-14.8h-6.3v47.5h-18.3V387.9h27.7
			c19,0,27.2,8.8,27.2,26.8v9.2c0,12-3.8,19.8-12,23.7c9.2,3.8,12.2,12.7,12.2,24.9v18c0,5.7,0.2,9.8,2,14.2H292.2z M272.2,404.6
			v35.9h7.2c6.8,0,11-3,11-12.3v-11.5c0-8.4-2.8-12-9.3-12H272.2z"/>
		<path class="st0" d="M336.4,466l-23.2-78.1h19.2l14,53.2l14-53.2h17.5L354.8,466v38.7h-18.3V466z"/>
	</g>
</g>
</svg>
