<?xml version="1.0" encoding="utf-8"?>
<!-- Generator: Adobe Illustrator 22.0.0, SVG Export Plug-In . SVG Version: 6.00 Build 0)  -->
<svg version="1.1" id="Layer_1" xmlns="http://www.w3.org/2000/svg" xmlns:xlink="http://www.w3.org/1999/xlink" x="0px" y="0px"
	 viewBox="0 0 184.7 246.7" style="enable-background:new 0 0 184.7 246.7;" xml:space="preserve">
<style type="text/css">
	.st0{fill:#543E5C;}
	.st1{fill:#FFFFFF;}
	.st2{fill:#E99085;}
</style>
<g>
	<rect class="st0" width="184.7" height="182.6"/>
	<path class="st1" d="M141.1,86.9c2.7-2.2,4.5-5.6,4.5-9.3v-1.9c0-6.6-5.4-12-12-12h-1.9c2.6-2.2,4.2-5.5,4.2-9.1v-1.9
		c0-6.6-5.4-12-12-12h-1.1c1.4-1.9,2.2-4.3,2.2-6.8v-1.9c0-6.6-5.4-12-12-12H71.8c-6.6,0-12,5.4-12,12v1.9c0,2.5,0.8,4.9,2.2,6.8
		h-1.1c-6.6,0-12,5.4-12,12v1.9c0,3.6,1.6,6.9,4.2,9.1h-1.9c-6.6,0-12,5.4-12,12v1.9c0,3.8,1.8,7.1,4.5,9.3
		c-5.8,0.8-10.3,5.8-10.3,11.9v1.9c0,6.6,5.4,12,12,12h94c6.6,0,12-5.4,12-12v-1.9C151.4,92.7,146.9,87.7,141.1,86.9z"/>
	<circle class="st2" cx="92.4" cy="16.4" r="9.3"/>
	<path class="st2" d="M36.6,106.7c-0.5,0.6-0.7,1.5-0.5,2.3l13.4,61.7c0.3,1.2,1.4,2.1,2.6,2.1h80.5c1.3,0,2.4-0.9,2.6-2.1
		l13.4-61.7c0.2-0.8,0-1.6-0.5-2.3c-0.4-0.5-0.9-0.8-1.4-0.9L92,120.1l-54-14.3C37.5,105.9,37,106.2,36.6,106.7z"/>
	<path class="st0" d="M151.7,72.1H121c-10.6,0-20.7,3.7-28.6,10.5c-8-6.8-18-10.5-28.6-10.5H33.1c-2,0-3.7,1.7-3.7,3.7v8.9
		c0,25.5,20.7,46.2,46.2,46.2c4.2,0,8.1-1.6,11.1-4.6l2.4-2.4c0.9-0.9,2.1-1.4,3.3-1.4c1.2,0,2.4,0.5,3.3,1.4l2.4,2.4
		c3,3,6.9,4.6,11.1,4.6c25.5,0,46.2-20.7,46.2-46.2v-8.9C155.4,73.8,153.7,72.1,151.7,72.1z M80.5,111.2h-7.9
		c-10.8,0-19.5-8.7-19.5-19.5c0-2,1.7-3.7,3.7-3.7h7.9c10.8,0,19.5,8.8,19.5,19.5C84.2,109.5,82.5,111.2,80.5,111.2z M112.1,111.2
		h-7.9c-2,0-3.7-1.7-3.7-3.7c0-10.8,8.8-19.5,19.5-19.5h7.9c2,0,3.7,1.7,3.7,3.7C131.6,102.4,122.9,111.2,112.1,111.2z"/>
	<g>
		<path class="st0" d="M9,215.3h11.5v8.1H9v23.3H0.1v-56.5h23.5v8.1H9V215.3z"/>
		<path class="st0" d="M55.6,246.7h-9l-1.5-10.3H34.2l-1.5,10.3h-8.2l9-56.5h13L55.6,246.7z M35.3,228.8h8.6l-4.3-28.6L35.3,228.8z"
			/>
		<path class="st0" d="M71.3,224.2l-2.7,5.2v17.4h-8.9v-56.5h8.9v24.6l11.6-24.6h8.9l-12.4,25.2l12.4,31.3H80L71.3,224.2z"/>
		<path class="st0" d="M102,214h12.2v8.1H102v16.6h15.3v8.1H93.1v-56.5h24.2v8.1H102V214z"/>
		<path class="st0" d="M141.4,246.7c-0.5-1.5-0.8-2.3-0.8-6.9v-8.9c0-5.2-1.8-7.2-5.8-7.2h-3.1v23h-8.9v-56.5h13.4
			c9.2,0,13.2,4.3,13.2,13v4.4c0,5.8-1.9,9.6-5.8,11.5c4.4,1.9,5.9,6.1,5.9,12v8.7c0,2.7,0.1,4.8,1,6.9H141.4z M131.7,198.3v17.4
			h3.5c3.3,0,5.3-1.5,5.3-6v-5.6c0-4-1.4-5.8-4.5-5.8H131.7z"/>
		<path class="st0" d="M162.8,228l-11.2-37.8h9.3l6.8,25.8l6.8-25.8h8.5L171.7,228v18.7h-8.9V228z"/>
	</g>
</g>
</svg>
