<?xml version="1.0" encoding="utf-8"?>
<!-- Generator: Adobe Illustrator 22.0.0, SVG Export Plug-In . SVG Version: 6.00 Build 0)  -->
<svg version="1.1" id="Layer_1" xmlns="http://www.w3.org/2000/svg" xmlns:xlink="http://www.w3.org/1999/xlink" x="0px" y="0px"
	 viewBox="0 0 377.8 116.7" style="enable-background:new 0 0 377.8 116.7;" xml:space="preserve">
<style type="text/css">
	.st0{fill:#6F5873;}
	.st1{fill:#FFFFFF;}
	.st2{fill:#E99085;}
</style>
<g>
	<g>
		<path class="st0" d="M18.3,51.9H42v16.7H18.3v48.2H0V0h48.5v16.7H18.3V51.9z"/>
		<path class="st0" d="M114.6,116.7H96.1l-3.2-21.2H70.4l-3.2,21.2H50.4L69.1,0h26.8L114.6,116.7z M72.7,79.7h17.7l-8.8-59
			L72.7,79.7z"/>
		<path class="st0" d="M147.2,70.2l-5.7,10.7v35.9h-18.3V0h18.3v50.9l24-50.9h18.3l-25.5,52l25.5,64.7H165L147.2,70.2z"/>
		<path class="st0" d="M210.6,49.2h25.2v16.7h-25.2v34.2h31.7v16.7h-50V0h50v16.7h-31.7V49.2z"/>
		<path class="st0" d="M292,116.7c-1-3-1.7-4.8-1.7-14.3V84.1c0-10.8-3.7-14.8-12-14.8H272v47.5h-18.3V0h27.7
			c19,0,27.2,8.8,27.2,26.8V36c0,12-3.8,19.8-12,23.7c9.2,3.8,12.2,12.7,12.2,24.9v18c0,5.7,0.2,9.8,2,14.2H292z M272,16.7v35.9h7.2
			c6.8,0,11-3,11-12.3V28.7c0-8.4-2.8-12-9.3-12H272z"/>
		<path class="st0" d="M336.2,78.1L313.1,0h19.2l14,53.2l14-53.2h17.5l-23.2,78.1v38.7h-18.3V78.1z"/>
	</g>
</g>
</svg>
