<?xml version="1.0" encoding="utf-8"?>
<!-- Generator: Adobe Illustrator 22.0.0, SVG Export Plug-In . SVG Version: 6.00 Build 0)  -->
<svg version="1.1" id="Layer_1" xmlns="http://www.w3.org/2000/svg" xmlns:xlink="http://www.w3.org/1999/xlink" x="0px" y="0px"
	 viewBox="0 0 244.5 77.5" style="enable-background:new 0 0 244.5 77.5;" xml:space="preserve">
<style type="text/css">
	.st0{fill:#6F5873;}
</style>
<g>
	<path class="st0" d="M19.2,47.4v5.7H6.3v24.3H0V21.2h22.3v5.7H6.3v20.5H19.2z"/>
	<path class="st0" d="M32.6,66.1l-2.2,11.3h-5.8l10.8-56.2h9.1l10.8,56.2H49l-2.2-11.3H32.6z M33.4,60.7h12.5l-6.3-32.4L33.4,60.7z"
		/>
	<path class="st0" d="M69.7,53l-3.3,5.5v18.9h-6.3V21.2h6.3v27.1l14.9-27.1h6.3L73.5,46.9l14.7,30.6h-6.4L69.7,53z"/>
	<path class="st0" d="M198,21.2c8.8,0,12.5,4.5,12.5,12.8v4.6c0,6.2-2.2,10-7,11.6c5.1,1.5,7.1,5.7,7.1,11.7v15.5
		c-3.5,0-3.4,0-6.3,0V61.8c0-6.3-3-8.3-8.2-8.3h-4.4v24h-6.3V21.2H198z M196.4,47.7c5,0,7.9-1.6,7.9-7.7v-5.4c0-5.1-1.8-7.7-6.5-7.7
		h-6.1v20.8H196.4z"/>
	<path class="st0" d="M226.3,57.3l-11.9-36.1h6.5l8.8,27.6l8.8-27.6h5.9l-12,36.1v20.2h-6.2V57.3z"/>
	<path class="st0" d="M178.1,21.7L119.8,0l0,0l0,0L94.9,21.2h0v56.2h83.2v-0.1h0V21.7z M172.3,46.1h-71.1V26.9h71.1V46.1z M121,6.7
		l40.3,14.6h-57.3L121,6.7z M101.2,51.8h71.1v20h-71.1V51.8z"/>
</g>
</svg>
