<?xml version="1.0" encoding="utf-8"?>
<!-- Generator: Adobe Illustrator 22.0.0, SVG Export Plug-In . SVG Version: 6.00 Build 0)  -->
<svg version="1.1" id="Layer_1" xmlns="http://www.w3.org/2000/svg" xmlns:xlink="http://www.w3.org/1999/xlink" x="0px" y="0px"
	 viewBox="0 0 658 145.5" style="enable-background:new 0 0 658 145.5;" xml:space="preserve">
<style type="text/css">
	.st0{fill:#6F5873;}
	.st1{fill:#FFFFFF;}
	.st2{fill:#E99085;}
</style>
<g>
	<rect class="st0" width="147.1" height="145.5"/>
	<path class="st1" d="M112.4,68.9c2.2-1.8,3.6-4.4,3.6-7.4v-1.5c0-5.3-4.3-9.6-9.6-9.6h-1.5c2-1.8,3.4-4.4,3.4-7.2v-1.5
		c0-5.3-4.3-9.6-9.6-9.6h-0.9c1.1-1.5,1.7-3.4,1.7-5.4v-1.5c0-5.3-4.3-9.6-9.6-9.6H57.2c-5.3,0-9.6,4.3-9.6,9.6v1.5
		c0,2,0.6,3.9,1.7,5.4h-0.9c-5.3,0-9.6,4.3-9.6,9.6v1.5c0,2.9,1.3,5.5,3.4,7.2h-1.5c-5.3,0-9.6,4.3-9.6,9.6v1.5c0,3,1.4,5.7,3.6,7.4
		c-4.6,0.7-8.2,4.7-8.2,9.4v1.5c0,5.3,4.3,9.6,9.6,9.6H111c5.3,0,9.6-4.3,9.6-9.6v-1.5C120.6,73.6,117,69.6,112.4,68.9z"/>
	<circle class="st2" cx="73.6" cy="12.8" r="7.4"/>
	<path class="st2" d="M29.2,84.7c-0.4,0.5-0.6,1.2-0.4,1.8l10.7,49.1c0.2,1,1.1,1.7,2.1,1.7h64.1c1,0,1.9-0.7,2.1-1.7l10.7-49.1
		c0.1-0.6,0-1.3-0.4-1.8c-0.3-0.4-0.7-0.6-1.1-0.7L73.3,95.4L30.3,84C29.8,84.1,29.4,84.3,29.2,84.7z"/>
	<path class="st0" d="M120.8,57.2H96.4c-8.5,0-16.4,3-22.8,8.4c-6.4-5.4-14.4-8.4-22.8-8.4H26.3c-1.6,0-2.9,1.3-2.9,2.9v7.1
		c0,20.3,16.5,36.8,36.8,36.8c3.3,0,6.5-1.3,8.8-3.7l1.9-1.9c0.7-0.7,1.6-1.1,2.6-1.1s1.9,0.4,2.6,1.1l1.9,1.9
		c2.4,2.4,5.5,3.7,8.8,3.7c20.3,0,36.8-16.5,36.8-36.8v-7.1C123.7,58.5,122.4,57.2,120.8,57.2z M64.1,88.3h-6.3
		c-8.6,0-15.5-7-15.5-15.5c0-1.6,1.3-2.9,2.9-2.9h6.3c8.6,0,15.5,7,15.5,15.5C67.1,86.9,65.7,88.3,64.1,88.3z M89.3,88.3H83
		c-1.6,0-2.9-1.3-2.9-2.9c0-8.6,7-15.5,15.5-15.5h6.3c1.6,0,2.9,1.3,2.9,2.9C104.8,81.3,97.9,88.3,89.3,88.3z"/>
	<g>
		<path class="st0" d="M210.9,64.8h29.5v20.7h-29.5v60H188V0.2h60.4V21h-37.6V64.8z"/>
		<path class="st0" d="M330.6,145.5h-23l-3.9-26.4h-28l-3.9,26.4h-21L274,0.2h33.4L330.6,145.5z M278.5,99.4h22l-11-73.5L278.5,99.4
			z"/>
		<path class="st0" d="M371.1,87.6l-7.1,13.3v44.6h-22.8V0.2h22.8v63.3l29.9-63.3h22.8L385,65l31.7,80.5h-23.4L371.1,87.6z"/>
		<path class="st0" d="M450,61.4h31.3v20.7H450v42.5h39.4v20.7h-62.3V0.2h62.3V21H450V61.4z"/>
		<path class="st0" d="M551.3,145.5c-1.3-3.7-2.1-6-2.1-17.8v-22.8c0-13.5-4.6-18.5-14.9-18.5h-7.9v59.1h-22.8V0.2H538
			c23.7,0,33.8,11,33.8,33.4V45c0,14.9-4.8,24.7-14.9,29.5c11.4,4.8,15.1,15.8,15.1,30.9v22.4c0,7.1,0.2,12.2,2.5,17.6H551.3z
			 M526.4,21v44.6h8.9c8.5,0,13.7-3.7,13.7-15.4V35.9c0-10.4-3.5-15-11.6-15H526.4z"/>
		<path class="st0" d="M606.3,97.3L577.5,0.2h23.9l17.4,66.2l17.4-66.2H658l-28.8,97.1v48.1h-22.8V97.3z"/>
	</g>
</g>
</svg>
